<svg width="377" height="164" viewBox="0 0 377 164" fill="none" xmlns="http://www.w3.org/2000/svg">
<path d="M129.637 31.5879C132.151 31.5879 134.497 32.3181 136.487 33.5507C136.545 33.5501 136.602 33.5507 136.66 33.5507C143.632 33.5507 149.338 39.0192 149.687 45.9047C149.7 46.1268 149.687 46.3533 149.687 46.5782C149.687 48.4647 149.272 50.2518 148.552 51.8699C149.941 53.9417 150.746 56.4216 150.746 59.1051C150.746 59.33 150.758 59.5565 150.746 59.7786C150.397 66.6639 144.691 72.1326 137.719 72.1326C137.03 72.1326 136.359 72.081 135.698 71.9786C133.654 73.313 131.203 74.0953 128.579 74.0953C126.036 74.0953 123.657 73.3719 121.651 72.1133C121.396 72.1289 121.14 72.1325 120.881 72.1325C113.685 72.1325 107.835 66.3021 107.835 59.1055C107.835 57.2098 108.259 55.4159 108.99 53.7945C107.598 51.7277 106.777 49.2598 106.777 46.5785C106.777 39.3816 112.627 33.5515 119.823 33.5515C120.702 33.5515 121.554 33.6371 122.382 33.8016C124.459 32.4047 126.946 31.5887 129.637 31.5887L129.637 31.5879Z" fill="#734B02" stroke="black" stroke-width="1.8473"/>
<path d="M242.067 0.787903C238.71 0.787903 235.641 1.83031 233.254 3.60041C231.319 2.67876 229.106 2.16291 226.754 2.16291C219.162 2.16291 213.004 7.6262 213.004 14.3509C213.004 15.6685 213.255 16.9437 213.692 18.1321C213.14 18.6856 212.656 19.2793 212.223 19.9133C209.09 17.3035 204.688 15.6633 199.785 15.6633C192.481 15.6633 186.248 19.2885 183.754 24.3821C182.003 23.5434 180.081 23.0383 178.066 23.0383C174.783 23.0383 171.734 24.2699 169.254 26.3508C166.955 24.7003 164.273 23.7258 161.379 23.7258C157.032 23.7258 153.105 25.8766 150.348 29.3196C148.724 28.9164 147.015 28.7259 145.223 28.7259C140.856 28.7259 136.884 30.0131 133.848 32.1321C130.464 27.5762 124.614 24.5696 117.942 24.5696C107.461 24.5696 98.942 31.9924 98.942 41.1636C98.942 43.3497 99.4396 45.4395 100.317 47.3511C99.3497 47.1557 98.414 46.8851 97.5045 46.5386C94.4554 52.8559 88.2917 57.1636 81.1605 57.1636C80.8749 57.1636 80.5991 57.1773 80.3167 57.1636C78.7649 66.5726 69.9207 73.7886 59.2227 73.7886C57.4755 73.7886 55.7855 73.5577 54.1602 73.1948C52.7262 75.9565 49.6613 78.2775 45.6602 79.7573C43.0787 82.5629 39.714 84.5355 35.9414 85.2885C37.5346 85.957 39.2481 86.351 41.0352 86.351C43.7564 86.351 46.266 85.5114 48.4727 84.0385C49.5414 88.3759 52.9586 91.5385 57.0039 91.5385C61.9052 91.5385 65.8789 86.876 65.8789 81.1325C65.8789 79.9301 65.6992 78.7694 65.3789 77.695C68.8495 76.9287 71.8995 74.7578 74.0977 71.7262C74.9329 72.1384 75.8191 72.4939 76.7227 72.7262C76.8975 73.0159 77.087 73.2877 77.2852 73.57C77.02 73.542 76.7441 73.5387 76.4727 73.5387C71.5714 73.5387 67.6289 78.17 67.6289 83.9137C67.6289 89.6574 71.5714 94.3198 76.4727 94.3198C79.2895 94.3198 81.8157 92.7807 83.4415 90.3823C87.0936 96.9531 96.7885 101.76 108.442 102.288C109.972 105.414 112.864 107.538 116.16 107.538C119.115 107.538 121.704 105.829 123.317 103.226C124.156 104.12 125.121 105.002 126.192 105.788C126.879 110.73 130.53 114.476 134.942 114.476C137.343 114.476 139.5 113.354 141.098 111.538C141.174 111.55 141.271 111.558 141.348 111.569C142.684 115.33 145.842 117.976 149.535 117.976C150.596 117.976 151.624 117.751 152.566 117.351C157.82 120.952 165.446 123.226 173.91 123.226C185.131 123.226 194.814 119.244 199.535 113.444C200.179 113.417 200.842 113.373 201.473 113.319C203.248 114.081 205.194 114.538 207.285 114.538C213.02 114.538 217.942 111.334 220.004 106.788C220.349 106.522 220.654 106.254 220.973 105.976C221.725 106.092 222.497 106.195 223.286 106.195C224.476 106.195 225.621 106.047 226.723 105.788C228.254 108.914 231.146 111.007 234.442 111.007C238.023 111.007 241.102 108.524 242.504 104.945C243.272 105.062 244.042 105.132 244.848 105.132C247.471 105.132 249.919 104.48 252.004 103.351C253.591 105.094 255.721 106.132 258.067 106.132C261.833 106.132 265.06 103.387 266.348 99.5071C266.719 99.5458 267.064 99.5696 267.442 99.5696C268.374 99.5696 269.312 99.4538 270.192 99.2258C271.67 100.516 273.488 101.257 275.473 101.257C279.132 101.257 282.271 98.68 283.629 94.9758C285.712 96.1331 288.167 96.7883 290.786 96.7883C296.128 96.7883 300.76 94.0313 303.036 89.9758C304.625 90.5609 306.372 90.8821 308.192 90.8821C315.784 90.8821 321.911 85.2671 321.911 78.3511C321.911 77.5318 321.826 76.7515 321.661 75.9761C322.719 74.2017 323.317 72.1687 323.317 70.0073C323.317 65.9703 321.198 62.3912 317.942 60.1011C318.258 59.0472 318.442 57.9339 318.442 56.7886C318.442 49.8723 312.284 44.2576 304.692 44.2576C304.02 44.2576 303.369 44.3291 302.723 44.4138C302.988 43.4697 303.129 42.493 303.129 41.4763C303.129 34.7521 296.972 29.2883 289.379 29.2883C289.16 29.2883 288.971 29.3105 288.754 29.3195C287.221 26.2053 284.324 24.132 281.036 24.132C279.751 24.132 278.544 24.4626 277.442 25.0383C274.039 19.2069 265.813 14.8023 255.754 13.6323C255.768 13.4075 255.816 13.1726 255.816 12.9448C255.816 6.22056 249.659 0.788757 242.066 0.788757L242.067 0.787903ZM276.692 46.1629C277.204 47.2561 277.892 48.2579 278.723 49.1629C277.96 49.0619 277.195 48.9756 276.41 48.9129C276.613 48.0806 276.692 47.2365 276.692 46.3504C276.692 46.2805 276.694 46.2326 276.692 46.1629H276.692ZM246.348 48.6004C247.366 48.6896 248.423 48.7353 249.473 48.7567C249.606 49.3384 249.812 49.8958 250.035 50.4442C248.849 49.8699 247.579 49.3679 246.254 48.913C246.287 48.8094 246.318 48.7051 246.348 48.6005V48.6004Z" fill="url(#paint0_linear_574_73)"/>
<path d="M132.927 35.7479C135.441 35.7479 137.787 36.4781 139.777 37.7107C139.835 37.7101 139.892 37.7107 139.95 37.7107C146.922 37.7107 152.628 43.1792 152.977 50.0647C152.989 50.2868 152.977 50.5133 152.977 50.7382C152.977 52.6247 152.562 54.4118 151.842 56.0299C153.231 58.1017 154.036 60.5816 154.036 63.2651C154.036 63.49 154.048 63.7165 154.036 63.9386C153.687 70.8239 147.98 76.2926 141.009 76.2926C140.32 76.2926 139.648 76.2408 138.988 76.1386C136.944 77.473 134.493 78.2553 131.868 78.2553C129.326 78.2553 126.946 77.5318 124.941 76.2733C124.686 76.2889 124.43 76.2925 124.171 76.2925C116.975 76.2925 111.125 70.4621 111.125 63.2655C111.125 61.3698 111.549 59.5759 112.28 57.9545C110.888 55.8877 110.067 53.4198 110.067 50.7385C110.067 43.5416 115.917 37.7115 123.113 37.7115C123.992 37.7115 124.844 37.7971 125.672 37.9616C127.749 36.5647 130.236 35.7487 132.927 35.7487L132.927 35.7479Z" fill="#3B2906"/>
<path d="M274.217 16.2879C270.17 16.2879 266.469 17.5603 263.592 19.6941C261.258 18.583 258.583 17.9441 255.748 17.9441C246.595 17.9441 239.186 24.5255 239.186 32.6321C239.186 34.2205 239.471 35.7619 239.998 37.1946C237.416 39.7827 235.842 43.1569 235.842 46.8821C235.842 48.142 236.036 49.3715 236.374 50.5383C234.89 50.965 233.516 51.5612 232.249 52.3195C229.777 53.4502 227.644 55.0735 226.092 57.1007C226.089 57.1017 226.095 57.1307 226.092 57.1319C224.547 57.711 223.092 58.3527 221.717 59.0694C219.099 53.0078 214.101 48.6104 208.155 47.5694C205.076 44.7905 201.249 43.1319 197.061 43.1319C193.104 43.1319 189.427 44.5921 186.436 47.1007C183.665 45.111 180.425 43.9445 176.936 43.9445C167.433 43.9445 159.641 52.4778 158.78 63.3505C157.093 62.7467 155.293 62.413 153.437 62.413C147.832 62.413 142.816 65.3786 139.468 70.038C138.543 69.9922 137.598 69.9443 136.655 69.9443C133.715 69.9443 130.881 70.174 128.155 70.6006C125.002 64.199 119.103 59.8815 112.343 59.8815C104.672 59.8815 98.105 65.4307 95.405 73.2876C92.5352 65.8851 86.2014 60.7256 78.811 60.7256C73.2362 60.7256 68.252 63.6714 64.905 68.2881C62.7284 67.2138 60.3526 66.6006 57.8425 66.6006C50.3047 66.6006 43.8135 71.9596 41.0305 79.6006C38.3279 77.7467 35.2007 76.6631 31.843 76.6631C25.0699 76.6631 19.149 80.9923 15.999 87.4131C14.6862 86.7392 13.2115 86.3506 11.6865 86.3506C5.77804 86.3506 0.998535 91.9577 0.998535 98.8815C0.998535 105.806 5.77754 111.413 11.6865 111.413C13.4798 111.413 15.2019 110.92 16.6865 110.006C16.75 110.117 16.8401 110.21 16.9053 110.319C18.3055 114.342 21.439 117.311 25.2178 117.975C27.2691 118.911 29.5092 119.444 31.8428 119.444C35.1233 119.444 38.1825 118.407 40.8428 116.631C42.1311 121.86 46.2473 125.694 51.1238 125.694C51.9065 125.694 52.6705 125.599 53.405 125.413C55.7198 126.532 58.2908 127.163 60.9988 127.163C63.2911 127.163 65.4751 126.697 67.4988 125.881C69.3854 127.846 71.8672 129.038 74.5926 129.038C77.9883 129.038 81.0078 127.179 82.9676 124.288C87.3702 132.209 99.0766 138.026 113.124 138.663C114.969 142.431 118.432 144.975 122.405 144.975C125.967 144.975 129.117 142.925 131.061 139.788C132.073 140.865 133.208 141.902 134.498 142.85C135.328 148.807 139.743 153.35 145.06 153.35C147.956 153.35 150.572 152.008 152.498 149.819C152.59 149.833 152.687 149.836 152.779 149.85C154.39 154.384 158.202 157.569 162.654 157.569C163.933 157.569 165.174 157.301 166.31 156.819C172.644 161.16 181.826 163.881 192.029 163.881C205.556 163.881 217.244 159.091 222.935 152.1C223.711 152.067 224.487 152.008 225.248 151.944C227.388 152.862 229.757 153.413 232.279 153.413C239.192 153.413 245.106 149.549 247.591 144.069C248.006 143.748 248.394 143.436 248.779 143.1C249.685 143.24 250.61 143.35 251.56 143.35C252.995 143.35 254.388 143.163 255.716 142.85C257.561 146.619 261.024 149.163 264.997 149.163C269.314 149.163 273.025 146.165 274.716 141.85C275.642 141.992 276.588 142.069 277.56 142.069C280.722 142.069 283.671 141.274 286.185 139.913C288.098 142.014 290.669 143.288 293.497 143.288C298.038 143.288 301.913 139.965 303.466 135.288C303.913 135.335 304.354 135.382 304.81 135.382C305.933 135.382 307.031 135.219 308.091 134.944C309.873 136.5 312.073 137.413 314.466 137.413C318.876 137.413 322.673 134.285 324.31 129.819C326.821 131.214 329.779 132.007 332.935 132.007C339.376 132.007 344.942 128.677 347.685 123.788C349.601 124.493 351.71 124.882 353.904 124.882C363.057 124.882 370.466 118.126 370.466 109.788C370.466 108.8 370.352 107.847 370.153 106.913C371.429 104.774 372.153 102.331 372.153 99.7251C372.153 94.8585 369.609 90.5485 365.684 87.7872C366.066 86.5167 366.278 85.1678 366.278 83.7872C366.278 75.4496 358.837 68.6931 349.684 68.6931C348.875 68.6931 348.088 68.7784 347.309 68.8806C347.629 67.7425 347.809 66.575 347.809 65.3494C347.809 57.2434 340.399 50.6615 331.247 50.6615C330.983 50.6615 330.728 50.6818 330.466 50.6926C328.618 46.9383 325.149 44.4115 321.185 44.4115C319.636 44.4115 318.17 44.8112 316.841 45.5052C312.738 38.4754 302.842 33.1662 290.716 31.7552C290.733 31.4843 290.778 31.2174 290.778 30.9427C290.778 22.8367 283.369 16.2867 274.216 16.2867L274.217 16.2879ZM315.936 70.9759C316.554 72.2937 317.403 73.51 318.405 74.6009C317.485 74.4791 316.538 74.3953 315.592 74.3196C315.837 73.3162 315.936 72.2941 315.936 71.2258C315.936 71.1415 315.938 71.0598 315.936 70.9758L315.936 70.9759ZM279.374 73.9447C280.602 74.0523 281.858 74.1065 283.124 74.1322C283.284 74.8335 283.542 75.5023 283.811 76.1634C282.382 75.4711 280.846 74.8681 279.249 74.3196C279.288 74.1948 279.338 74.0707 279.374 73.9446V73.9447Z" fill="url(#paint1_linear_574_73)"/>
<path d="M274.647 16.3879C270.6 16.3879 266.9 17.6603 264.022 19.7941C261.688 18.683 259.013 18.0441 256.178 18.0441C254.782 18.0441 253.442 18.2245 252.147 18.5128C255.072 20.7403 257.831 23.0691 260.366 25.4503C271.665 26.6962 280.428 35.7093 280.428 46.6693C280.428 49.0584 280.009 51.3677 279.24 53.5132C280.885 58.5236 281.771 63.6781 281.771 68.9511C281.771 68.9711 281.771 68.9926 281.771 69.0136C286.222 72.9175 288.99 78.4638 288.99 84.6386C288.99 96.3436 278.988 105.874 266.584 106.045C266.206 106.48 265.818 106.925 265.428 107.357C266.396 109.501 266.928 111.813 266.928 114.201C266.928 126.013 254.108 135.576 238.272 135.576C236.863 135.576 235.47 135.504 234.116 135.357C231.685 145.699 217.274 153.638 199.866 153.638C193.789 153.638 188.079 152.682 183.116 150.982C179.806 154.787 175.072 157.568 169.647 158.701C175.741 162.006 183.713 163.982 192.459 163.982C205.986 163.982 217.674 159.192 223.365 152.201C224.141 152.168 224.916 152.109 225.677 152.045C227.817 152.962 230.187 153.513 232.708 153.513C239.622 153.513 245.535 149.649 248.02 144.17C248.435 143.848 248.823 143.537 249.208 143.201C250.115 143.341 251.039 143.451 251.989 143.451C253.425 143.451 254.817 143.263 256.145 142.951C257.991 146.719 261.453 149.263 265.427 149.263C269.743 149.263 273.454 146.265 275.145 141.951C276.071 142.093 277.018 142.17 277.989 142.17C281.151 142.17 284.1 141.374 286.614 140.013C288.527 142.114 291.098 143.388 293.927 143.388C298.467 143.388 302.342 140.065 303.895 135.388C304.342 135.435 304.783 135.482 305.239 135.482C306.362 135.482 307.46 135.319 308.52 135.045C310.303 136.6 312.502 137.513 314.895 137.513C319.306 137.513 323.102 134.385 324.739 129.92C327.25 131.315 330.208 132.107 333.364 132.107C339.805 132.107 345.371 128.777 348.114 123.888C350.031 124.594 352.139 124.982 354.333 124.982C363.486 124.982 370.895 118.226 370.895 109.888C370.895 108.9 370.781 107.948 370.583 107.013C371.858 104.874 372.583 102.431 372.583 99.8255C372.583 94.9589 370.039 90.6488 366.114 87.8875C366.495 86.617 366.707 85.2682 366.707 83.8875C366.707 75.5499 359.267 68.7934 350.113 68.7934C349.304 68.7934 348.517 68.8785 347.738 68.9809C348.058 67.8428 348.238 66.6753 348.238 65.4496C348.238 57.3436 340.829 50.7616 331.676 50.7616C331.412 50.7616 331.157 50.7821 330.895 50.7928C329.047 47.0385 325.578 44.5116 321.614 44.5116C320.065 44.5116 318.599 44.9115 317.27 45.6055C313.168 38.5757 303.271 33.2665 291.145 31.8555C291.162 31.5845 291.208 31.3176 291.208 31.043C291.208 22.937 283.798 16.3869 274.646 16.3869L274.647 16.3879ZM316.366 71.0759C316.984 72.3938 317.833 73.61 318.835 74.7009C317.915 74.5791 316.968 74.4952 316.022 74.4197C316.267 73.4162 316.366 72.3941 316.366 71.3259C316.366 71.2419 316.368 71.1599 316.366 71.0759H316.366Z" fill="url(#paint2_linear_574_73)"/>
<path d="M162.417 130.698C163.868 130.698 165.222 131.119 166.371 131.831C166.405 131.831 166.437 131.831 166.471 131.831C170.495 131.831 173.789 134.987 173.991 138.962C173.998 139.09 173.991 139.221 173.991 139.351C173.991 140.44 173.751 141.471 173.335 142.405C174.137 143.601 174.602 145.033 174.602 146.582C174.602 146.711 174.609 146.842 174.602 146.97C174.4 150.945 171.106 154.101 167.082 154.101C166.684 154.101 166.297 154.072 165.916 154.012C164.735 154.783 163.321 155.234 161.806 155.234C160.339 155.234 158.965 154.817 157.807 154.09C157.66 154.099 157.512 154.101 157.363 154.101C153.209 154.101 149.832 150.736 149.832 146.582C149.832 145.487 150.077 144.452 150.499 143.516C149.695 142.323 149.221 140.898 149.221 139.351C149.221 135.196 152.598 131.831 156.752 131.831C157.259 131.831 157.751 131.88 158.229 131.975C159.428 131.169 160.864 130.698 162.417 130.698H162.417Z" fill="#734B02" stroke="black" stroke-width="1.0663"/>
<path d="M164.317 133.098C165.768 133.098 167.122 133.519 168.271 134.231C168.304 134.231 168.337 134.231 168.371 134.231C172.395 134.231 175.689 137.388 175.891 141.362C175.898 141.49 175.891 141.621 175.891 141.751C175.891 142.84 175.651 143.871 175.235 144.805C176.037 146.001 176.502 147.433 176.502 148.982C176.502 149.111 176.509 149.242 176.502 149.37C176.3 153.345 173.006 156.501 168.982 156.501C168.584 156.501 168.197 156.471 167.816 156.412C166.635 157.183 165.221 157.634 163.706 157.634C162.238 157.634 160.865 157.217 159.707 156.49C159.56 156.499 159.412 156.501 159.263 156.501C155.109 156.501 151.732 153.136 151.732 148.982C151.732 147.887 151.977 146.852 152.398 145.916C151.595 144.723 151.121 143.298 151.121 141.751C151.121 137.596 154.498 134.231 158.652 134.231C159.159 134.231 159.651 134.28 160.129 134.375C161.328 133.569 162.764 133.098 164.317 133.098H164.317Z" fill="#3B2906"/>
<path d="M245.517 130.158C246.968 130.158 248.322 130.579 249.471 131.291C249.504 131.291 249.537 131.291 249.571 131.291C253.595 131.291 256.889 134.448 257.091 138.422C257.098 138.55 257.091 138.681 257.091 138.811C257.091 139.9 256.851 140.931 256.435 141.865C257.237 143.061 257.702 144.493 257.702 146.042C257.702 146.171 257.709 146.302 257.702 146.43C257.5 150.405 254.206 153.561 250.182 153.561C249.784 153.561 249.397 153.532 249.016 153.472C247.835 154.243 246.421 154.694 244.906 154.694C243.438 154.694 242.065 154.277 240.907 153.55C240.76 153.559 240.612 153.561 240.463 153.561C236.308 153.561 232.932 150.196 232.932 146.042C232.932 144.947 233.177 143.912 233.598 142.976C232.795 141.783 232.321 140.358 232.321 138.811C232.321 134.656 235.698 131.291 239.852 131.291C240.359 131.291 240.851 131.34 241.329 131.435C242.528 130.629 243.964 130.158 245.517 130.158L245.517 130.158Z" fill="#734B02" stroke="black" stroke-width="1.0663"/>
<path d="M247.417 132.558C248.868 132.558 250.222 132.979 251.371 133.691C251.405 133.691 251.437 133.691 251.471 133.691C255.496 133.691 258.789 136.847 258.991 140.822C258.998 140.95 258.991 141.081 258.991 141.211C258.991 142.3 258.751 143.331 258.335 144.265C259.137 145.461 259.602 146.893 259.602 148.442C259.602 148.571 259.609 148.702 259.602 148.83C259.4 152.805 256.106 155.961 252.082 155.961C251.684 155.961 251.297 155.931 250.916 155.872C249.735 156.643 248.321 157.094 246.806 157.094C245.339 157.094 243.965 156.677 242.807 155.95C242.66 155.959 242.512 155.961 242.363 155.961C238.209 155.961 234.832 152.596 234.832 148.442C234.832 147.347 235.077 146.312 235.499 145.376C234.695 144.183 234.221 142.758 234.221 141.211C234.221 137.056 237.598 133.691 241.752 133.691C242.259 133.691 242.751 133.74 243.229 133.835C244.428 133.029 245.864 132.558 247.417 132.558L247.417 132.558Z" fill="#3B2906"/>
<path d="M354.447 83.5679C356.686 83.5679 358.775 84.2181 360.547 85.3157C360.599 85.3152 360.65 85.3157 360.701 85.3157C366.91 85.3157 371.991 90.1854 372.302 96.3167C372.313 96.5145 372.302 96.7162 372.302 96.9165C372.302 98.5965 371.933 100.188 371.291 101.629C372.528 103.474 373.245 105.682 373.245 108.072C373.245 108.272 373.256 108.474 373.245 108.672C372.934 114.803 367.853 119.673 361.644 119.673C361.031 119.673 360.433 119.627 359.845 119.535C358.024 120.724 355.842 121.42 353.505 121.42C351.241 121.42 349.121 120.776 347.336 119.655C347.109 119.669 346.881 119.672 346.65 119.672C340.241 119.672 335.032 114.48 335.032 108.071C335.032 106.383 335.41 104.786 336.06 103.342C334.821 101.501 334.09 99.3037 334.09 96.916C334.09 90.5071 339.299 85.315 345.708 85.315C346.49 85.315 347.249 85.3912 347.987 85.5378C349.836 84.2938 352.051 83.5671 354.447 83.5671L354.447 83.5679Z" fill="#734B02" stroke="black" stroke-width="1.645"/>
<path d="M357.387 87.2779C359.625 87.2779 361.715 87.9281 363.487 89.0257C363.539 89.0251 363.589 89.0257 363.641 89.0257C369.85 89.0257 374.931 93.8954 375.242 100.027C375.253 100.224 375.242 100.426 375.242 100.626C375.242 102.306 374.873 103.898 374.231 105.339C375.468 107.184 376.185 109.392 376.185 111.782C376.185 111.982 376.196 112.184 376.185 112.382C375.874 118.513 370.792 123.382 364.584 123.382C363.97 123.382 363.372 123.336 362.785 123.245C360.964 124.434 358.782 125.13 356.444 125.13C354.181 125.13 352.061 124.486 350.275 123.365C350.048 123.379 349.821 123.382 349.59 123.382C343.181 123.382 337.972 118.19 337.972 111.781C337.972 110.093 338.35 108.496 339 107.052C337.76 105.211 337.03 103.014 337.03 100.626C337.03 94.2172 342.239 89.0251 348.648 89.0251C349.43 89.0251 350.189 89.1013 350.927 89.2478C352.776 88.0038 354.991 87.2772 357.387 87.2772L357.387 87.2779Z" fill="#3B2906"/>
<path d="M304.207 63.0979C305.746 63.0979 307.182 63.5448 308.4 64.2993C308.435 64.2989 308.47 64.2993 308.506 64.2993C312.773 64.2993 316.266 67.6465 316.48 71.8608C316.487 71.9967 316.48 72.1354 316.48 72.273C316.48 73.4277 316.226 74.5216 315.785 75.512C316.635 76.7801 317.128 78.298 317.128 79.9406C317.128 80.0783 317.135 80.2169 317.128 80.3529C316.914 84.5673 313.421 87.9144 309.154 87.9144C308.732 87.9144 308.321 87.8828 307.917 87.8201C306.666 88.6368 305.166 89.1157 303.559 89.1157C302.003 89.1157 300.546 88.6729 299.319 87.9026C299.163 87.9126 299.006 87.9144 298.848 87.9144C294.443 87.9144 290.862 84.3457 290.862 79.9406C290.862 78.7803 291.122 77.6822 291.569 76.6898C290.717 75.4248 290.215 73.9142 290.215 72.273C290.215 67.8679 293.795 64.2992 298.2 64.2992C298.738 64.2992 299.26 64.3516 299.767 64.4523C301.038 63.5972 302.56 63.0978 304.207 63.0978V63.0979Z" fill="#734B02" stroke="black" stroke-width="1.1307"/>
<path opacity="0.80247" d="M307.897 67.3179C309.436 67.3179 310.872 67.7648 312.09 68.5193C312.125 68.5189 312.16 68.5193 312.196 68.5193C316.463 68.5193 319.956 71.8665 320.17 76.0808C320.177 76.2167 320.17 76.3554 320.17 76.493C320.17 77.6477 319.916 78.7416 319.475 79.732C320.325 81.0001 320.817 82.518 320.817 84.1606C320.817 84.2983 320.824 84.4369 320.817 84.5729C320.604 88.7873 317.111 92.1344 312.844 92.1344C312.422 92.1344 312.011 92.1027 311.607 92.0401C310.355 92.8568 308.856 93.3357 307.249 93.3357C305.693 93.3357 304.236 92.8929 303.009 92.1225C302.853 92.1325 302.696 92.1343 302.538 92.1343C298.133 92.1343 294.552 88.5656 294.552 84.1605C294.552 83.0002 294.812 81.9022 295.259 80.9098C294.407 79.6448 293.905 78.1342 293.905 76.493C293.905 72.0879 297.485 68.5192 301.89 68.5192C302.428 68.5192 302.95 68.5716 303.457 68.6723C304.727 67.8172 306.25 67.3178 307.897 67.3178L307.897 67.3179Z" fill="#3B2906"/>
<path d="M32.4867 96.6079C33.9378 96.6079 35.2921 97.0294 36.4409 97.7409C36.4744 97.7405 36.5073 97.7409 36.5409 97.7409C40.5653 97.7409 43.8592 100.898 44.0606 104.872C44.0676 105 44.0606 105.131 44.0606 105.261C44.0606 106.35 43.8209 107.381 43.4053 108.315C44.2069 109.511 44.6715 110.943 44.6715 112.492C44.6715 112.621 44.6785 112.752 44.6715 112.88C44.47 116.855 41.1762 120.011 37.1518 120.011C36.7541 120.011 36.3666 119.982 35.9855 119.922C34.8053 120.693 33.3908 121.144 31.8758 121.144C30.4084 121.144 29.0347 120.727 27.8771 120C27.7298 120.009 27.5823 120.011 27.4328 120.011C23.2785 120.011 19.902 116.646 19.902 112.492C19.902 111.397 20.1467 110.362 20.5684 109.426C19.7647 108.233 19.291 106.808 19.291 105.261C19.291 101.106 22.6676 97.7409 26.8218 97.7409C27.3289 97.7409 27.8211 97.7903 28.2991 97.8853C29.4976 97.079 30.9336 96.6079 32.4866 96.6079L32.4867 96.6079Z" fill="#734B02" stroke="black" stroke-width="1.0663"/>
<path d="M34.3869 99.0079C35.838 99.0079 37.1923 99.4294 38.3411 100.141C38.3746 100.141 38.4074 100.141 38.4411 100.141C42.4655 100.141 45.7594 103.297 45.9608 107.272C45.9678 107.4 45.9608 107.531 45.9608 107.661C45.9608 108.75 45.7211 109.781 45.3054 110.715C46.107 111.911 46.5716 113.343 46.5716 114.892C46.5716 115.021 46.5786 115.152 46.5716 115.28C46.3702 119.255 43.0763 122.411 39.0519 122.411C38.6543 122.411 38.2667 122.381 37.8856 122.322C36.7054 123.093 35.2909 123.544 33.7759 123.544C32.3085 123.544 30.9348 123.127 29.7772 122.4C29.63 122.409 29.4824 122.411 29.3329 122.411C25.1786 122.411 21.8021 119.046 21.8021 114.892C21.8021 113.797 22.0468 112.762 22.4686 111.826C21.6648 110.633 21.1912 109.208 21.1912 107.661C21.1912 103.506 24.5678 100.141 28.722 100.141C29.2291 100.141 29.7213 100.19 30.1993 100.285C31.3978 99.479 32.8338 99.0079 34.3868 99.0079H34.3869Z" fill="#3B2906"/>
<path d="M109.647 101.638C111.098 101.638 112.452 102.059 113.601 102.771C113.635 102.771 113.667 102.771 113.701 102.771C117.725 102.771 121.019 105.927 121.221 109.902C121.228 110.03 121.221 110.161 121.221 110.291C121.221 111.38 120.981 112.411 120.565 113.345C121.367 114.541 121.832 115.973 121.832 117.522C121.832 117.651 121.839 117.782 121.832 117.91C121.63 121.885 118.336 125.041 114.312 125.041C113.914 125.041 113.527 125.012 113.146 124.952C111.965 125.723 110.551 126.174 109.036 126.174C107.569 126.174 106.195 125.757 105.037 125.03C104.89 125.039 104.742 125.041 104.593 125.041C100.439 125.041 97.0621 121.676 97.0621 117.521C97.0621 116.427 97.3068 115.392 97.7286 114.456C96.9248 113.263 96.4512 111.838 96.4512 110.291C96.4512 106.136 99.8278 102.771 103.982 102.771C104.489 102.771 104.981 102.82 105.459 102.915C106.658 102.109 108.094 101.638 109.647 101.638L109.647 101.638Z" fill="#734B02" stroke="black" stroke-width="1.0663"/>
<path d="M111.547 104.038C112.998 104.038 114.352 104.459 115.501 105.171C115.534 105.171 115.567 105.171 115.601 105.171C119.625 105.171 122.919 108.327 123.121 112.302C123.128 112.43 123.121 112.561 123.121 112.691C123.121 113.78 122.881 114.811 122.465 115.745C123.267 116.941 123.732 118.373 123.732 119.922C123.732 120.051 123.739 120.182 123.732 120.31C123.53 124.285 120.236 127.441 116.212 127.441C115.814 127.441 115.427 127.411 115.046 127.352C113.865 128.123 112.451 128.574 110.936 128.574C109.468 128.574 108.095 128.157 106.937 127.43C106.79 127.439 106.642 127.441 106.493 127.441C102.339 127.441 98.962 124.076 98.962 119.922C98.962 118.827 99.2067 117.792 99.6285 116.856C98.8247 115.663 98.3511 114.238 98.3511 112.691C98.3511 108.536 101.728 105.171 105.882 105.171C106.389 105.171 106.881 105.22 107.359 105.315C108.558 104.509 109.994 104.038 111.547 104.038H111.547Z" fill="#3B2906" fill-opacity="0.50698"/>
<path d="M274.037 92.3079C275.5 92.3079 276.865 92.5722 278.023 93.0185C278.057 93.0182 278.09 93.0185 278.124 93.0185C282.181 93.0185 285.502 94.9982 285.705 97.4909C285.712 97.5713 285.705 97.6533 285.705 97.7347C285.705 98.4177 285.463 99.0646 285.044 99.6504C285.853 100.4 286.321 101.298 286.321 102.27C286.321 102.351 286.328 102.433 286.321 102.514C286.118 105.006 282.797 106.986 278.74 106.986C278.339 106.986 277.948 106.967 277.564 106.93C276.374 107.413 274.948 107.697 273.421 107.697C271.942 107.697 270.557 107.435 269.39 106.979C269.241 106.985 269.092 106.986 268.942 106.986C264.753 106.986 261.349 104.875 261.349 102.27C261.349 101.583 261.596 100.934 262.021 100.347C261.211 99.5988 260.733 98.7054 260.733 97.7347C260.733 95.1292 264.138 93.0185 268.326 93.0185C268.837 93.0185 269.333 93.0495 269.815 93.1091C271.023 92.6034 272.471 92.308 274.037 92.308V92.3079Z" fill="#734B02" stroke="black" stroke-width="0.8479"/>
<path d="M275.957 93.8079C277.42 93.8079 278.785 94.0722 279.943 94.5185C279.977 94.5182 280.01 94.5185 280.044 94.5185C284.101 94.5185 287.422 96.4982 287.625 98.9909C287.632 99.0713 287.625 99.1533 287.625 99.2347C287.625 99.9177 287.384 100.565 286.965 101.15C287.773 101.9 288.241 102.798 288.241 103.77C288.241 103.851 288.248 103.933 288.241 104.014C288.038 106.506 284.717 108.486 280.66 108.486C280.259 108.486 279.869 108.467 279.484 108.43C278.295 108.913 276.868 109.197 275.341 109.197C273.862 109.197 272.477 108.935 271.31 108.479C271.161 108.485 271.013 108.486 270.862 108.486C266.674 108.486 263.27 106.375 263.27 103.77C263.27 103.083 263.516 102.434 263.941 101.847C263.131 101.099 262.654 100.205 262.654 99.2347C262.654 96.6292 266.058 94.5185 270.246 94.5185C270.757 94.5185 271.253 94.5495 271.735 94.6091C272.944 94.1034 274.391 93.808 275.957 93.808L275.957 93.8079Z" fill="#3B2906" fill-opacity="0.50698"/>
<path d="M82.7498 62.1579C84.2128 62.1579 85.5781 62.4222 86.7363 62.8685C86.7701 62.8682 86.8032 62.8685 86.8372 62.8685C90.8945 62.8685 94.2152 64.8482 94.4183 67.3409C94.4253 67.4213 94.4183 67.5033 94.4183 67.5847C94.4183 68.2677 94.1766 68.9146 93.7576 69.5004C94.5657 70.2504 95.0342 71.1482 95.0342 72.1197C95.0342 72.2011 95.0412 72.2831 95.0342 72.3635C94.8311 74.8561 91.5104 76.8359 87.4531 76.8359C87.0522 76.8359 86.6615 76.8172 86.2773 76.7802C85.0875 77.2633 83.6614 77.5465 82.134 77.5465C80.6547 77.5465 79.2697 77.2846 78.1027 76.829C77.9542 76.835 77.8055 76.836 77.6547 76.836C73.4665 76.836 70.0624 74.7252 70.0624 72.1198C70.0624 71.4335 70.3091 70.7841 70.7343 70.1971C69.924 69.4489 69.4465 68.5554 69.4465 67.5847C69.4465 64.9792 72.8506 62.8685 77.0388 62.8685C77.5501 62.8685 78.0462 62.8995 78.5281 62.9591C79.7364 62.4533 81.1841 62.1579 82.7498 62.1579V62.1579Z" fill="#734B02" stroke="black" stroke-width="0.8479"/>
<path d="M84.6649 63.6579C86.1279 63.6579 87.4932 63.9222 88.6514 64.3685C88.6852 64.3682 88.7182 64.3685 88.7522 64.3685C92.8095 64.3685 96.1302 66.3482 96.3333 68.8409C96.3403 68.9213 96.3333 69.0033 96.3333 69.0847C96.3333 69.7677 96.0917 70.4146 95.6726 71.0004C96.4808 71.7504 96.9492 72.6482 96.9492 73.6198C96.9492 73.7012 96.9562 73.7832 96.9492 73.8636C96.7461 76.3562 93.4254 78.336 89.3681 78.336C88.9672 78.336 88.5765 78.3173 88.1923 78.2802C87.0025 78.7633 85.5764 79.0465 84.049 79.0465C82.5697 79.0465 81.1847 78.7846 80.0177 78.329C79.8693 78.335 79.7205 78.336 79.5698 78.336C75.3816 78.336 71.9775 76.2253 71.9775 73.6198C71.9775 72.9335 72.2242 72.2841 72.6494 71.6971C71.8391 70.9489 71.3616 70.0554 71.3616 69.0847C71.3616 66.4792 74.7657 64.3685 78.9539 64.3685C79.4651 64.3685 79.9613 64.3995 80.4433 64.4591C81.6516 63.9533 83.0993 63.6579 84.665 63.6579L84.6649 63.6579Z" fill="#3B2906" fill-opacity="0.50698"/>
<path d="M207.577 78.6679C209.831 78.6679 211.935 79.0752 213.719 79.7627C213.771 79.7624 213.822 79.7627 213.874 79.7627C220.126 79.7627 225.242 82.813 225.554 86.6535C225.565 86.7774 225.554 86.9037 225.554 87.0292C225.554 88.0815 225.182 89.0783 224.536 89.9809C225.782 91.1365 226.503 92.5198 226.503 94.0166C226.503 94.142 226.514 94.2684 226.503 94.3923C226.19 98.2328 221.074 101.283 214.823 101.283C214.206 101.283 213.604 101.254 213.012 101.197C211.179 101.942 208.981 102.378 206.628 102.378C204.349 102.378 202.215 101.974 200.417 101.272C200.188 101.281 199.959 101.283 199.727 101.283C193.274 101.283 188.029 98.0312 188.029 94.0168C188.029 92.9594 188.409 91.9588 189.064 91.0544C187.816 89.9016 187.08 88.525 187.08 87.0294C187.08 83.015 192.325 79.7628 198.778 79.7628C199.566 79.7628 200.33 79.8107 201.073 79.9025C202.934 79.1233 205.165 78.6682 207.577 78.6682L207.577 78.6679Z" fill="#734B02" stroke="black" stroke-width="1.3064"/>
<path d="M210.537 80.9879C212.791 80.9879 214.894 81.3952 216.679 82.0827C216.731 82.0824 216.782 82.0827 216.834 82.0827C223.085 82.0827 228.202 85.133 228.514 88.9735C228.525 89.0974 228.514 89.2237 228.514 89.3492C228.514 90.4015 228.142 91.3983 227.496 92.3009C228.741 93.4565 229.463 94.8398 229.463 96.3366C229.463 96.462 229.474 96.5884 229.463 96.7122C229.15 100.553 224.034 103.603 217.783 103.603C217.165 103.603 216.563 103.574 215.971 103.517C214.138 104.261 211.941 104.698 209.588 104.698C207.308 104.698 205.175 104.294 203.377 103.592C203.148 103.601 202.919 103.603 202.686 103.603C196.234 103.603 190.988 100.351 190.988 96.3365C190.988 95.2791 191.369 94.2785 192.024 93.3741C190.775 92.2213 190.04 90.8447 190.04 89.3491C190.04 85.3348 195.284 82.0826 201.738 82.0826C202.525 82.0826 203.29 82.1304 204.032 82.2222C205.894 81.443 208.124 80.9879 210.537 80.9879L210.537 80.9879Z" fill="#3B2906" fill-opacity="0.50698"/>
<defs>
<linearGradient id="paint0_linear_574_73" x1="187.757" y1="121.318" x2="187.757" y2="11.0079" gradientUnits="userSpaceOnUse">
<stop/>
<stop offset="1" stop-color="#4B3000"/>
</linearGradient>
<linearGradient id="paint1_linear_574_73" x1="0.996785" y1="90.0979" x2="372.147" y2="90.0979" gradientUnits="userSpaceOnUse">
<stop stop-color="#593D09"/>
<stop offset="1" stop-color="#7F5200"/>
</linearGradient>
<linearGradient id="paint2_linear_574_73" x1="169.647" y1="90.1779" x2="372.587" y2="90.1779" gradientUnits="userSpaceOnUse">
<stop stop-color="#563B09"/>
<stop offset="1" stop-color="#291D04"/>
</linearGradient>
</defs>
</svg>
